<svg width="159" height="30" viewBox="0 0 159 30" fill="none" xmlns="http://www.w3.org/2000/svg">
<path d="M20.1587 9.632V29H14.8307V26.696C14.0867 27.536 13.1987 28.184 12.1667 28.64C11.1347 29.072 10.0187 29.288 8.81869 29.288C6.27469 29.288 4.25869 28.556 2.77069 27.092C1.28269 25.628 0.538688 23.456 0.538688 20.576V9.632H6.15469V19.748C6.15469 22.868 7.46269 24.428 10.0787 24.428C11.4227 24.428 12.5027 23.996 13.3187 23.132C14.1347 22.244 14.5427 20.936 14.5427 19.208V9.632H20.1587ZM31.8775 29.288C30.2695 29.288 28.6975 29.096 27.1615 28.712C25.6255 28.304 24.4015 27.8 23.4895 27.2L25.3615 23.168C26.2255 23.72 27.2695 24.176 28.4935 24.536C29.7175 24.872 30.9175 25.04 32.0935 25.04C34.4695 25.04 35.6575 24.452 35.6575 23.276C35.6575 22.724 35.3335 22.328 34.6855 22.088C34.0375 21.848 33.0415 21.644 31.6975 21.476C30.1135 21.236 28.8055 20.96 27.7735 20.648C26.7415 20.336 25.8415 19.784 25.0735 18.992C24.3295 18.2 23.9575 17.072 23.9575 15.608C23.9575 14.384 24.3055 13.304 25.0015 12.368C25.7215 11.408 26.7535 10.664 28.0975 10.136C29.4655 9.608 31.0735 9.344 32.9215 9.344C34.2895 9.344 35.6455 9.5 36.9895 9.812C38.3575 10.1 39.4855 10.508 40.3735 11.036L38.5015 15.032C36.7975 14.072 34.9375 13.592 32.9215 13.592C31.7215 13.592 30.8215 13.76 30.2215 14.096C29.6215 14.432 29.3215 14.864 29.3215 15.392C29.3215 15.992 29.6455 16.412 30.2935 16.652C30.9415 16.892 31.9735 17.12 33.3895 17.336C34.9735 17.6 36.2695 17.888 37.2775 18.2C38.2855 18.488 39.1615 19.028 39.9055 19.82C40.6495 20.612 41.0215 21.716 41.0215 23.132C41.0215 24.332 40.6615 25.4 39.9415 26.336C39.2215 27.272 38.1655 28.004 36.7735 28.532C35.4055 29.036 33.7735 29.288 31.8775 29.288ZM54.2425 24.788C55.2505 24.788 56.1385 24.644 56.9065 24.356C57.6985 24.044 58.4305 23.564 59.1025 22.916L62.0905 26.156C60.2665 28.244 57.6025 29.288 54.0985 29.288C51.9145 29.288 49.9825 28.868 48.3025 28.028C46.6225 27.164 45.3265 25.976 44.4145 24.464C43.5025 22.952 43.0465 21.236 43.0465 19.316C43.0465 17.42 43.4905 15.716 44.3785 14.204C45.2905 12.668 46.5265 11.48 48.0865 10.64C49.6705 9.776 51.4465 9.344 53.4145 9.344C55.2625 9.344 56.9425 9.74 58.4545 10.532C59.9665 11.3 61.1665 12.428 62.0545 13.916C62.9665 15.38 63.4225 17.12 63.4225 19.136L49.0945 21.908C49.5025 22.868 50.1385 23.588 51.0025 24.068C51.8905 24.548 52.9705 24.788 54.2425 24.788ZM53.4145 13.592C51.9985 13.592 50.8465 14.048 49.9585 14.96C49.0705 15.872 48.6025 17.132 48.5545 18.74L57.9865 16.904C57.7225 15.896 57.1825 15.092 56.3665 14.492C55.5505 13.892 54.5665 13.592 53.4145 13.592ZM78.8615 28.064C78.3095 28.472 77.6255 28.784 76.8095 29C76.0175 29.192 75.1895 29.288 74.3255 29.288C71.9975 29.288 70.2095 28.7 68.9615 27.524C67.7135 26.348 67.0895 24.62 67.0895 22.34V5.348H72.7055V10.064H77.4935V14.384H72.7055V22.268C72.7055 23.084 72.9095 23.72 73.3175 24.176C73.7255 24.608 74.3135 24.824 75.0815 24.824C75.9455 24.824 76.7135 24.584 77.3855 24.104L78.8615 28.064ZM87.3974 12.188C88.0694 11.252 88.9694 10.544 90.0974 10.064C91.2494 9.584 92.5694 9.344 94.0574 9.344V14.528C93.4334 14.48 93.0134 14.456 92.7974 14.456C91.1894 14.456 89.9294 14.912 89.0174 15.824C88.1054 16.712 87.6494 18.056 87.6494 19.856V29H82.0334V9.632H87.3974V12.188ZM97.3967 9.632H103.013V29H97.3967V9.632ZM100.205 6.932C99.1727 6.932 98.3327 6.632 97.6847 6.032C97.0367 5.432 96.7127 4.688 96.7127 3.8C96.7127 2.912 97.0367 2.168 97.6847 1.568C98.3327 0.967998 99.1727 0.667998 100.205 0.667998C101.237 0.667998 102.077 0.955998 102.725 1.532C103.373 2.108 103.697 2.828 103.697 3.692C103.697 4.628 103.373 5.408 102.725 6.032C102.077 6.632 101.237 6.932 100.205 6.932Z" fill="#034F4A"/>
<path d="M110.349 29.288C109.365 29.288 108.537 28.952 107.865 28.28C107.193 27.608 106.857 26.768 106.857 25.76C106.857 24.728 107.193 23.9 107.865 23.276C108.537 22.628 109.365 22.304 110.349 22.304C111.333 22.304 112.161 22.628 112.833 23.276C113.505 23.9 113.841 24.728 113.841 25.76C113.841 26.768 113.505 27.608 112.833 28.28C112.161 28.952 111.333 29.288 110.349 29.288ZM124.163 29.288C122.555 29.288 120.983 29.096 119.447 28.712C117.911 28.304 116.687 27.8 115.775 27.2L117.647 23.168C118.511 23.72 119.555 24.176 120.779 24.536C122.003 24.872 123.203 25.04 124.379 25.04C126.755 25.04 127.943 24.452 127.943 23.276C127.943 22.724 127.619 22.328 126.971 22.088C126.323 21.848 125.327 21.644 123.983 21.476C122.399 21.236 121.091 20.96 120.059 20.648C119.027 20.336 118.127 19.784 117.359 18.992C116.615 18.2 116.243 17.072 116.243 15.608C116.243 14.384 116.591 13.304 117.287 12.368C118.007 11.408 119.039 10.664 120.383 10.136C121.751 9.608 123.359 9.344 125.207 9.344C126.575 9.344 127.931 9.5 129.275 9.812C130.643 10.1 131.771 10.508 132.659 11.036L130.787 15.032C129.083 14.072 127.223 13.592 125.207 13.592C124.007 13.592 123.107 13.76 122.507 14.096C121.907 14.432 121.607 14.864 121.607 15.392C121.607 15.992 121.931 16.412 122.579 16.652C123.227 16.892 124.259 17.12 125.675 17.336C127.259 17.6 128.555 17.888 129.563 18.2C130.571 18.488 131.447 19.028 132.191 19.82C132.935 20.612 133.307 21.716 133.307 23.132C133.307 24.332 132.947 25.4 132.227 26.336C131.507 27.272 130.451 28.004 129.059 28.532C127.691 29.036 126.059 29.288 124.163 29.288ZM145.088 21.404L142.388 24.068V29H136.772V2.288H142.388V17.408L150.596 9.632H157.292L149.228 17.84L158.012 29H151.208L145.088 21.404Z" fill="#62E46D"/>
</svg>
